<?xml version="1.0" encoding="iso-8859-1"?>
<!-- Generator: Adobe Illustrator 23.0.1, SVG Export Plug-In . SVG Version: 6.00 Build 0)  -->
<svg version="1.1" id="Calque_1" xmlns="http://www.w3.org/2000/svg" xmlns:xlink="http://www.w3.org/1999/xlink" x="0px" y="0px"
	 viewBox="0 0 1920 1080" style="enable-background:new 0 0 1920 1080;" xml:space="preserve">
<path style="fill:#006837;stroke:#006837;stroke-width:9;stroke-miterlimit:10;" d="M1995.5,892.5
	c-29.229-28.329-75.324-72.375-148-112c-34.841-18.996-107.358-57.735-198-68c-45.788-5.185-76.848-0.913-360,93
	c-101.829,33.774-160.313,53.951-234,98c-71.757,42.896-131.975,79.872-134,129c-2.981,72.329,121.804,131.387,173,155
	c395.38,182.359,1039.805,104.586,1066-61C2170.661,1062.266,2088.185,982.33,1995.5,892.5z"/>
<path style="fill:#009245;stroke:#009245;stroke-width:9;stroke-miterlimit:10;" d="M566.5,790.5
	c242.977,43.283,526.326,229.569,503,343c-41.673,202.65-1072.36,222.239-1149,0c-11.552-33.498-25.092-141.111,34-219
	c4.963-6.541,21.221-27.087,61-53c55.949-36.447,130.885-65.572,287-76C393.882,779.396,474.088,774.038,566.5,790.5z"/>
<path style="fill:#009245;stroke:#009245;stroke-width:9;stroke-miterlimit:10;" d="M618.5,1575.5"/>
</svg>
