<?xml version="1.0" encoding="iso-8859-1"?>
<!-- Generator: Adobe Illustrator 23.0.1, SVG Export Plug-In . SVG Version: 6.00 Build 0)  -->
<svg version="1.1" id="Calque_1" xmlns="http://www.w3.org/2000/svg" xmlns:xlink="http://www.w3.org/1999/xlink" x="0px" y="0px"
	 viewBox="0 0 288 560.001" style="enable-background:new 0 0 288 560.001;" xml:space="preserve">
<path style="fill:#FFFFFF;stroke:#000000;stroke-miterlimit:10;" d="M141.378,503.844c-5.516,0.118-10.023,3.346-12.307,5.919
	c-3.284,3.699-3.228,10.991,0,15.079c4.824,6.109,15.086,2.981,18.12,2.056c11.476-3.498,21.369-14.662,19.415-19.192
	C165.924,506.125,165.598,503.325,141.378,503.844z"/>
<path style="fill:#FFFFFF;stroke:#000000;stroke-miterlimit:10;" d="M137.151,518.055c1.593-1.493,4.463-3.79,8.655-5.255
	c5.562-1.944,10.398-1.356,12.673-0.927"/>
<path style="fill:#FFFFFF;stroke:#39B54A;stroke-width:3;stroke-miterlimit:10;" d="M145.805,512.8
	c0.473-6.58,1.218-15.906,2.367-27.06c0.677-6.567,1.385-13.442,2.367-20.566c2.288-16.591,4.648-33.712,11.499-50.332
	c1.308-3.172,4.592-9.331,11.161-21.648c7.477-14.02,9.535-16.951,11.837-23.813c3.36-10.016,4.128-19.58,4.321-21.7
	c0.26-2.84,0.366-5.246,0.413-6.984"/>
<path style="fill:#FFFFFF;stroke:#39B54A;stroke-width:3;stroke-miterlimit:10;" d="M188.594,343.005
	c-2.006-3.639,7.429-13.865,7.967-14.442c4.179-4.477,8.073-8.649,14.335-10.012c3.582-0.78,8.968,0.778,19.595,3.925
	c11.063,3.276,11.32,5.032,12.176,5.392c15.67,6.588-9.764,10.594-15.781,13.174c-7.34,3.148-13.837,3.607-17.647,3.845
	c-5.327,0.332-3.267-0.532-14.577-0.723C190.765,344.098,189.241,344.179,188.594,343.005z"/>
<path style="fill:#FFFFFF;stroke:#39B54A;stroke-width:3;stroke-miterlimit:10;" d="M150.239,412.319
	c-1.517-4.034-3.908-9.978-7.349-17.024c-5.232-10.713-7.495-12.923-10.896-20.177c-1.298-2.768-7.322-13.88-7.856-28.373
	c-2.15-58.409,1.683-16.424-0.507-29.214c-1.309-7.647-3.641-13.775-5.443-17.815"/>
<path style="fill:#FFFFFF;stroke:#39B54A;stroke-width:3;stroke-miterlimit:10;" d="M118.189,299.716
	c-0.743-0.416-1.892-0.992-3.365-1.457c-7.949-2.51-13.707,1.896-21.878,3.454c-0.69,0.132-11.2,2.004-21.015-2.591
	c-9.826-4.6-19.683-20.677-15.545-18.999c10.651,4.318,7.065,0.061,28.211,2.303c16.038,1.701,23.013,1.153,28.499,6.909
	C116.337,292.734,117.617,296.819,118.189,299.716z"/>
<path style="fill:#FFFFFF;stroke:#39B54A;stroke-width:3;stroke-miterlimit:10;" d="M152.429,440.053
	c-0.101-4.068-0.794-19.657-1.062-27.237c-0.775-21.898-1.273-24.042-1.077-29.2c0.624-16.48,1.931-14.014,6.953-34.884
	c4.014-16.68-1.175-19.66,0-43.725c0.565-11.572-5.837-24.04-8.569-38.192c-1.336-6.923-1.036-12.913-0.558-16.945"/>
<path style="fill:#FFFFFF;stroke:#39B54A;stroke-width:3;stroke-miterlimit:10;" d="M145.982,250.283
	c-5.822-0.021-11.164-4.44-10.608-6.938c0.968-4.344,20.447-5.891,22.001-1.927C158.346,243.894,153.023,250.308,145.982,250.283z"
	/>
<path style="fill:#FFFFFF;stroke:#C1272D;stroke-width:3;stroke-miterlimit:10;" d="M134.309,241.161
	c-4.369-0.484-7.077-3.118-10.608-6.553c-4.335-4.217-9.516-9.257-9.822-16.96c-0.056-1.402-0.341-8.606,4.715-13.105
	c7.535-6.706,20.438-1.25,22.177-0.421c1.779,0.848,3.36,1.963,3.36,1.963c0,0,2.043,1.322,3.536,3.084
	c6.198,7.315,6.018,20.906-1.572,27.752C145.058,237.856,140.373,241.833,134.309,241.161z"/>
<path style="fill:#FFFFFF;stroke:#C1272D;stroke-width:3;stroke-miterlimit:10;" d="M155.018,237.177"/>
<path style="fill:#FFFFFF;stroke:#C1272D;stroke-width:3;stroke-miterlimit:10;" d="M147.684,236.206
	c-0.295,1.787,3.283,4.267,6.883,4.879c3.616,0.615,6.518-0.779,8.604-1.626c10.518-4.27,13.676-0.066,22.371-3.659
	c0.916-0.379,13.736-5.862,13.767-15.043c0.016-4.806-3.473-10.206-8.174-11.384c-3.086-0.773-6.073,0.704-12.046,3.659
	c-3.718,1.839-7.238,3.58-11.186,6.912c-7.499,6.328-6.655,10.051-12.906,13.011C151.024,234.834,147.945,234.627,147.684,236.206z"
	/>
<path style="fill:#FFFFFF;stroke:#C1272D;stroke-width:3;stroke-miterlimit:10;" d="M137.944,201.133
	c-1.5,0.334,1.827-2.531,1.895-2.482c0.038,0.027,0.411-0.791,1.811-1.89c0,0,2.48-2.241,5.654-3.506
	c1.722-0.687,4.391-1.302,11.001-0.771c6.566,0.528,9.916,0.751,13.751,2.698c5.96,3.027,11.787,8.643,10.608,11.178
	c-0.842,1.809-0.515,3.443-5.651,5.378c-2.838,1.069-4.862,1.986-14.238,12.877c-5.137,5.967-15.464,15.332-16.361,14.951
	c-1.79-0.759,8.973-19.236,2.833-27.218C143.965,205.484,140.773,200.504,137.944,201.133z"/>
<path style="fill:#FFFFFF;stroke:#C1272D;stroke-width:3;stroke-miterlimit:10;" d="M107.482,202.541
	c-1.042,0.573-4.308,2.437-4.91,2.847c0,0-0.541,7.154-2.232,11.168c-2.302,5.464,7.813,8.559,11.1,12.882
	c3.624,4.767,11.794,15.513,20.757,14.234c2.393-0.342,5.269-1.601,5.357-3.066c0.134-2.244-6.429-2.474-12.276-7.445
	c-7.129-6.062-8.397-15.098-8.482-15.767c-1.008-8.001-2.413-10.285-4.231-11.13C111.915,205.961,110.768,200.733,107.482,202.541z"
	/>
</svg>
