<?xml version="1.0" encoding="iso-8859-1"?>
<!-- Generator: Adobe Illustrator 23.0.1, SVG Export Plug-In . SVG Version: 6.00 Build 0)  -->
<svg version="1.1" id="Calque_1" xmlns="http://www.w3.org/2000/svg" xmlns:xlink="http://www.w3.org/1999/xlink" x="0px" y="0px"
	 viewBox="0 0 258.733 523.755" style="enable-background:new 0 0 258.733 523.755;" xml:space="preserve">
<path style="fill:#FFFFFF;stroke:#000000;stroke-width:4;stroke-miterlimit:10;" d="M132.278,456.135
	c-1.478,1.479-2.276,2.676-3.69,4.796c-3.303,4.953-5.802,8.702-6.325,13.43c-0.174,1.571-1.026,9.269,4.217,13.43
	c6.192,4.914,16.588,1.484,21.085,0c8.874-2.928,13.963-8.361,15.814-10.552c3.085-3.652,8.593-10.173,6.853-18.226
	c-0.123-0.568-2.156-9.289-10.015-11.991c-4.842-1.664-9.209-0.121-16.341,2.398C136.49,452.029,133.052,455.36,132.278,456.135z"/>
<path style="fill:#FFFFFF;stroke:#000000;stroke-miterlimit:10;" d="M123.264,493.052c0.374-4.152,1.575-9.662,5.185-14.815
	c3.147-4.493,7.079-7.007,14.815-11.852c5.43-3.401,11.793-6.66,12.281-6.905c1.048-0.526,1.925-0.951,2.534-1.243"/>
<path style="fill:#FFFFFF;stroke:#8CC63F;stroke-width:4;stroke-miterlimit:10;" d="M134.258,472.967
	c-0.844-1.624-1.803-4.113-0.822-6.173c0.877-1.842,2.789-2.258,7.165-3.944c5.923-2.282,8.884-3.423,10.52-5.239
	c2.267-2.518,1.997-5.199,2.556-10.466c1.141-10.757,3.612-12.271,4.306-19.024c1.092-10.627-3.785-18.958-5.937-23.36
	c-13.68-27.991-3.447-73.787-3.847-73.804c-0.476-0.02-4.238,65.188,0.482,84.356c0.293,1.19,1.439,5.535,1.446,11.413
	c0.003,2.711-0.233,9.12-3.135,16.975c-5.183,14.026-14.83,21.734-13.556,23.094c1.207,1.288,10.138-5.343,11.768-3.494
	c0.244,0.277,0.206,1.505,0.342,3.951c0.16,2.876,4.646-3.642,4.568-3.537c-1.058,1.435,0.812-41.197-2.402-89.593
	c-0.31-4.667,1.973-18.938,0.744-31.372c-0.836-8.453-0.659-11.344,0.13-17.367c1.153-8.799,3.826-16.041,6.697-23.694
	c2.961-7.895,4.442-11.842,5.885-13.99c10.895-16.217,43.035-17.416,65.418-9.482c2.256,0.8,36.61,17.539,19.483,13.27
	c-13.888-3.462-26.352,6.679-35.922,10.037c-21.861,7.671-49.78-9.255-48.979-13.825c0.483-2.755,12.024-4.547,58.105-1.011"/>
<path style="fill:#FFFFFF;stroke:#8CC63F;stroke-width:4;stroke-miterlimit:10;" d="M146.505,302.599l1.996,15.112
	c0.443-16.555-2.741-29.178-5.418-37.067c-2.149-6.334-4.334-10.691-8.554-19.104c-9.341-18.621-15.562-24.991-17.393-26.803
	c-0.556-0.55-2.17-1.608-3.725-3.611c-3.42-4.405-5.728-7.131-5.661-7.152c0.078-0.024,4.437,3.978,2.976,5.083
	c-1.185,0.896-4.003-2.661-8.298-4.421c-7.97-3.265-14.053,2.516-21.536,2.626c-9.609,0.142-16.858-9.134-24.688-19.435
	c-9.243-12.16-28.013-59.956-21.011-50.952c9.916,12.752,26.649,5.849,46.224,18.91c10.072,6.721,16.922,14.217,21.536,36.769
	c1.707,8.342,7.58,16.196,4.797,11.419c-2.39-4.102-42.047-17.448-48.911-40.902"/>
<path style="fill:#FFFFFF;stroke:#8CC63F;stroke-width:4;stroke-miterlimit:10;" d="M151.064,298.056
	c-9.285-40.651-5.584-70.421,0-90.682c3.746-13.594,15.075-47.344,4.35-57.751c-4.053-3.933-9.323-5.372-9.323-5.372
	c-8.308-2.269-16.681,1.169-16.562,2.078c0.117,0.893,8.641,0.874,16.078-0.523c10.607-1.991,16.247-6.265,18.278-7.949
	c3.287-2.725,5.678-4.708,5.177-6.118c-0.474-1.333-3.212-1.253-35.298,5.648c-2.716,0.584-7.152,1.603-8.942,5.177
	c-1.359,2.713-0.623,5.758,0,7.53"/>
<ellipse style="fill:#FFFFFF;stroke:#ED1E79;stroke-width:4;stroke-miterlimit:10;" cx="127.85" cy="138.841" rx="22.431" ry="14.385"/>
<ellipse style="fill:#FFFFFF;stroke:#ED1E79;stroke-width:4;stroke-miterlimit:10;" cx="115.032" cy="110.501" rx="26.903" ry="18.338"/>
<ellipse style="fill:#FFFFFF;stroke:#ED1E79;stroke-width:4;stroke-miterlimit:10;" cx="178.283" cy="102.114" rx="28.002" ry="18.777"/>
<ellipse style="fill:#FFFFFF;stroke:#ED1E79;stroke-width:4;stroke-miterlimit:10;" cx="141.936" cy="88.327" rx="28.027" ry="18.558"/>
<ellipse style="fill:#FFFFFF;stroke:#ED1E79;stroke-width:4;stroke-miterlimit:10;" cx="176.299" cy="131.094" rx="25.114" ry="20.593"/>
<ellipse style="fill:#FCEE21;" cx="146.592" cy="116.319" rx="25.063" ry="15.473"/>
</svg>
