<?xml version="1.0" encoding="iso-8859-1"?>
<!-- Generator: Adobe Illustrator 23.0.1, SVG Export Plug-In . SVG Version: 6.00 Build 0)  -->
<svg version="1.1" id="Calque_1" xmlns="http://www.w3.org/2000/svg" xmlns:xlink="http://www.w3.org/1999/xlink" x="0px" y="0px"
	 viewBox="0 0 97.778 148.148" style="enable-background:new 0 0 97.778 148.148;" xml:space="preserve">
<path style="fill:#FFFFFF;stroke:#000000;stroke-width:4;stroke-miterlimit:10;" d="M26.667,82.222
	c-2.077,2.285-3.199,4.134-5.185,7.407c-4.641,7.649-8.154,13.439-8.889,20.741c-0.244,2.426-1.441,14.315,5.926,20.741
	c8.701,7.589,23.31,2.291,29.63,0c12.47-4.522,19.622-12.913,22.222-16.296c4.335-5.64,12.075-15.711,9.63-28.148
	c-0.173-0.878-3.029-14.346-14.074-18.519c-6.804-2.57-12.942-0.187-22.963,3.704C32.585,75.881,27.755,81.025,26.667,82.222z"/>
<path style="fill:#FFFFFF;stroke:#000000;stroke-miterlimit:10;" d="M26.667,120.741c0.374-4.152,1.575-9.662,5.185-14.815
	c3.147-4.493,7.079-7.007,14.815-11.852c5.43-3.401,11.793-6.66,12.281-6.905c1.048-0.526,1.925-0.951,2.534-1.243"/>
<path style="fill:#FFFFFF;stroke:#8CC63F;stroke-width:4;stroke-miterlimit:10;" d="M36.736,94.769
	c-0.53-1.537-1.152-3.569-1.678-5.998c-0.16-0.738-0.892-4.187-1.158-9.034c-0.117-2.13-0.225-5.98,0.301-10.888
	c0.581-5.421,1.351-6.691,2.373-12.457c0.899-5.07,1.577-8.893,1.433-13.64c-0.275-9.089-3.396-16.103-5.085-19.805
	c-3.087-6.766-6.019-9.894-5.722-10.116c0.526-0.393,10.317,8.907,15.747,22.832c1.079,2.767,2.414,6.259,3.029,11.098
	c0.64,5.034,0.192,9.174-0.728,17.247c-1.073,9.411-1.811,9.53-1.165,12.423c0.616,2.755,1.878,5.3,3.029,11.098
	c0.289,1.453,0.48,2.659,0.599,3.462"/>
</svg>
