<?xml version="1.0" encoding="iso-8859-1"?>
<!-- Generator: Adobe Illustrator 23.0.1, SVG Export Plug-In . SVG Version: 6.00 Build 0)  -->
<svg version="1.1" id="Calque_1" xmlns="http://www.w3.org/2000/svg" xmlns:xlink="http://www.w3.org/1999/xlink" x="0px" y="0px"
	 viewBox="0 0 97.778 93.333" style="enable-background:new 0 0 97.778 93.333;" xml:space="preserve">
<path style="fill:#FFFFFF;stroke:#000000;stroke-width:4;stroke-miterlimit:10;" d="M26.667,27.407
	c-2.077,2.285-3.199,4.134-5.185,7.407c-4.641,7.649-8.154,13.439-8.889,20.741c-0.244,2.426-1.441,14.315,5.926,20.741
	c8.701,7.589,23.31,2.291,29.63,0C60.618,71.775,67.77,63.384,70.37,60c4.335-5.64,12.075-15.711,9.63-28.148
	c-0.173-0.878-3.029-14.346-14.074-18.519c-6.804-2.57-12.942-0.187-22.963,3.704C32.585,21.066,27.755,26.21,26.667,27.407z"/>
<path style="fill:#FFFFFF;stroke:#000000;stroke-miterlimit:10;" d="M26.667,65.926c0.374-4.152,1.575-9.662,5.185-14.815
	c3.147-4.493,7.079-7.007,14.815-11.852c3.691-2.312,8.669-5.204,14.815-8.148"/>
</svg>
