<?xml version="1.0" encoding="iso-8859-1"?>
<!-- Generator: Adobe Illustrator 23.0.1, SVG Export Plug-In . SVG Version: 6.00 Build 0)  -->
<svg version="1.1" id="Calque_1" xmlns="http://www.w3.org/2000/svg" xmlns:xlink="http://www.w3.org/1999/xlink" x="0px" y="0px"
	 viewBox="0 0 210.483 298.327" style="enable-background:new 0 0 210.483 298.327;" xml:space="preserve">
<path style="fill:#FFFFFF;stroke:#000000;stroke-width:4;stroke-miterlimit:10;" d="M75.013,229.106
	c-2.077,2.285-3.199,4.134-5.185,7.407c-4.641,7.649-8.154,13.439-8.889,20.741c-0.244,2.426-1.441,14.315,5.926,20.741
	c8.701,7.589,23.31,2.291,29.63,0c12.47-4.522,19.622-12.913,22.222-16.296c4.335-5.64,12.075-15.711,9.63-28.148
	c-0.173-0.878-3.029-14.346-14.074-18.519c-6.804-2.57-12.942-0.187-22.963,3.704C80.932,222.764,76.102,227.908,75.013,229.106z"/>
<path style="fill:#FFFFFF;stroke:#000000;stroke-miterlimit:10;" d="M75.013,267.624c0.374-4.152,1.575-9.662,5.185-14.815
	c3.147-4.493,7.079-7.007,14.815-11.852c5.43-3.401,11.793-6.66,12.281-6.905c1.048-0.526,1.925-0.951,2.534-1.243"/>
<path style="fill:#FFFFFF;stroke:#8CC63F;stroke-width:4;stroke-miterlimit:10;" d="M85.083,243.061
	c-1.063-1.49-2.361-3.82-1.678-5.998c0.61-1.947,2.445-2.626,6.542-4.908c5.545-3.088,8.318-4.633,9.683-6.66
	c1.892-2.81,1.25-5.428,1.066-10.721c-0.376-10.811,1.859-12.656,1.601-19.44c-0.406-10.676-6.402-18.241-9.148-22.299
	c-17.463-25.801-13.742-72.578-14.141-72.539c-0.474,0.047,4.929,65.139,12.286,83.458c0.457,1.137,2.2,5.279,3.029,11.098
	c0.383,2.684,1.046,9.063-0.728,17.247c-3.168,14.613-11.641,23.596-10.19,24.764c1.375,1.106,9.29-6.709,11.163-5.107
	c0.281,0.24,0.414,1.461,0.892,3.865c0.561,2.825,4.09-4.257,4.028-4.142c-0.847,1.569-4.964-40.905-14.92-88.375
	c-0.96-4.577-0.697-19.028-3.655-31.167c-3.545-14.55-2.01-27.121-1.301-32.537c1.462-11.17,2.274-17.374,6.182-23.752
	c12.413-20.259,43.95-22.502,63.446-18.546c2.346,0.476,38.704,12.241,21.149,10.412c-6.403-0.667-19.615,12.767-34.163,14.967
	c-22.875,3.459-47.083-1.122-47.178-5.531c-0.053-2.469,14.708-5.079,54.137-10.436"/>
</svg>
